<svg xmlns="http://www.w3.org/2000/svg" width="400" height="800">
  <rect x="20" y="20" width="360" height="760" fill="none" stroke="black" stroke-width="2"/>
  <rect x="20" y="720" width="360" height="60" fill="none" stroke="black" stroke-width="1.5"/>
  <text x="200" y="750" font-size="16" text-anchor="middle">Map &amp; Alternatives</text>

  <!-- Map area -->
  <rect x="40" y="100" width="320" height="580" fill="none" stroke="black" stroke-width="1.5"/>
  <!-- Lots -->
  <rect x="60" y="540" width="70" height="70" fill="none" stroke="black"/>
  <rect x="160" y="540" width="70" height="70" fill="none" stroke="black"/>
  <rect x="260" y="540" width="70" height="70" fill="none" stroke="black"/>
  <rect x="60" y="440" width="70" height="70" fill="none" stroke="black"/>
  <rect x="160" y="440" width="70" height="70" fill="none" stroke="black"/>
  <rect x="260" y="440" width="70" height="70" fill="none" stroke="black"/>
  <rect x="60" y="340" width="70" height="70" fill="none" stroke="black"/>
  <rect x="160" y="340" width="70" height="70" fill="none" stroke="black"/>
  <rect x="260" y="340" width="70" height="70" fill="none" stroke="black"/>

  <!-- You to Lot A path -->
  <line x1="200" y1="390" x2="120" y2="570" stroke="black"/>
  <circle cx="200" cy="390" r="6" fill="none" stroke="black" stroke-width="1.5"/>
  <circle cx="120" cy="570" r="6" fill="none" stroke="black" stroke-width="1.5"/>
  <text x="200" y="365" font-size="11" text-anchor="middle">You</text>
  <text x="120" y="590" font-size="11" text-anchor="middle">Lot A 82%</text>

  <!-- Footer info -->
  <rect x="40" y="40" width="320" height="40" fill="none" stroke="black"/>
  <text x="200" y="65" font-size="12" text-anchor="middle">ETA 8 min • 0.4 mi • Walk 6 min</text>
</svg>
